<?xml version="1.0" encoding="utf-8"?>
<!-- Generator: Adobe Illustrator 23.0.2, SVG Export Plug-In . SVG Version: 6.00 Build 0)  -->
<svg version="1.1" id="レイヤー_1" xmlns="http://www.w3.org/2000/svg" x="0px"
     y="0px" viewBox="0 0 290 100" style="enable-background:new 0 0 290 100;" xml:space="preserve">
<style type="text/css">
	.st0{fill:#FFFFFF;}
	.st1{fill:none;}
	.st2{opacity:0.75;fill:url(#SVGID_1_);enable-background:new    ;}
	.st3{opacity:0.75;fill:url(#SVGID_2_);enable-background:new    ;}
	.st4{fill:url(#SVGID_3_);}
	.st5{fill:url(#SVGID_4_);}
	.st6{fill:url(#SVGID_5_);}
	.st7{fill:url(#SVGID_6_);}
	.st8{fill:url(#SVGID_7_);}
	.st9{fill:url(#SVGID_8_);}
	.st10{fill:url(#SVGID_9_);}
	.st11{fill:#D04040;}
	.st12{fill:#FFB82A;}
</style>
<title>logo-02</title>
<g id="logo">
	<path class="st0" d="M126.6,33.5c-0.2,0-0.4,0.1-0.6,0.2c-0.6,1.1-1.3,1.3-3.8,1.3h-20.3c-3.4,0-4.1,0-4.3-1.3
		c-0.1-0.1-0.3-0.2-0.5-0.2c-0.2,0-0.4,0-0.6,0.2c-0.5,2.5-1.2,5-1.9,7.4c0.4,0.5,1.1,0.6,1.6,0.3c1.8-4,3.2-4.5,7.8-4.5h2.8
		c1.3,0,1.3,0.1,1.3,2.2v21.1c0,5.2-0.4,5.3-2.8,5.5l-2.1,0.2c-0.3,0.4-0.3,1,0.1,1.4c3.2-0.1,5.5-0.2,7.7-0.2s4.4,0,7.3,0.2
		c0.4-0.4,0.5-1,0.1-1.4c0,0,0,0,0,0l-1.8-0.2c-2.3-0.2-2.8-0.4-2.8-5.6V39.1c0-2.1,0-2.2,1.3-2.2h2.8c5.3,0,6.3,0.9,6.9,4.8
		c0.5,0.3,1.1,0.3,1.5-0.2c-0.1-2.6,0.2-5.2,0.8-7.8C127,33.6,126.8,33.5,126.6,33.5z"/>
	<path class="st0" d="M146.9,64.9c-0.5,0.3-1.1,0.5-1.7,0.5c-1.8,0-2.5-1.5-2.4-4.3l0.4-7.7c0.2-4.3-2.2-6.1-6.2-6.1
		c-2.8,0.2-5.5,1.3-7.7,3.1c-1.6,1.5-1.9,2.5-1.9,3.1s0.3,0.8,1,0.8c1.1,0,2.2-0.3,3.2-0.9c0.6-0.4,0.9-1.1,0.9-1.8
		c0.1-1.3,1.3-2.3,2.6-2.2c2.4,0,3.1,2.2,3,4.7v1.3c0,0.5-0.1,0.9-1.1,1.3c-1.8,0.7-3.7,1.4-5.5,2c-3.4,1.2-4.1,2.8-4.1,4.6
		c-0.1,2.6,2,4.7,4.6,4.8c0.2,0,0.3,0,0.5,0c1.5,0,3-0.5,4.2-1.3c0.7-0.4,1.1-0.7,1.3-0.7s0.4,0.2,0.8,0.6c1,0.9,2.2,1.4,3.6,1.4
		c1.5,0,4-0.8,5-2.2C147.5,65.4,147.1,64.9,146.9,64.9z M137.9,63c0.1,1.2-0.8,2.3-2,2.4c-0.1,0-0.2,0-0.4,0c-1.5,0-2.8-1.2-2.8-2.7
		c0,0,0-0.1,0-0.1c0-2.1,1.3-2.8,2.7-3.3c0.7-0.3,1.4-0.5,2.2-0.6c0.2,0,0.4,0.3,0.4,0.8L137.9,63z"/>
	<path class="st0" d="M174.7,65.3c-0.9,0-1.2-1.5-1.2-6V39.8c0-2.1,0-5.2,0.1-7.1c-0.1-0.3-0.4-0.4-0.7-0.4c-2,0.8-4.6,1.8-6.5,2.3
		c-0.4,0.2-0.3,0.9,0,1.1l0.7,0.4c1.1,0.7,1.1,1,1.1,4.3v6.4c0,0.5-0.1,0.7-0.3,0.8c-0.9-0.3-1.9-0.4-2.9-0.3
		c-6.2,0-11.9,4.2-11.9,11.3c-0.2,5,3.8,9.2,8.8,9.4c0.1,0,0.3,0,0.4,0c2.1-0.1,4.1-0.9,5.7-2.2h0.2c0.1,0.4,0.1,0.9,0.1,1.4
		l-0.1,0.7c0.1,0.3,0.3,0.5,0.6,0.5c2.5-1,5.2-1.6,7.9-1.9c0.6-0.3,0.4-1.5,0.1-1.8C176.1,65.1,175.4,65.3,174.7,65.3z M168.2,62.6
		c0.1,0.5-0.1,1-0.3,1.4c-0.8,0.7-1.8,1.1-2.9,1.1c-3.5,0-6.2-3.3-6.2-8.4c0-4.1,2.1-7.4,5.5-7.4c1.3,0,2.5,0.6,3.3,1.7
		c0.5,0.7,0.7,1.5,0.6,2.4V62.6z"/>
	<path class="st0" d="M193.5,47.3c-5.8,0-10.9,4.1-10.9,10.7s4.8,10,10.5,10c5.9,0,10.9-3.6,10.9-10.6
		C204,51.1,199.1,47.3,193.5,47.3z M193.7,66.1c-3.6,0-5.2-4.3-5.2-8.8c0-5.4,2-8,4.5-8c3.7,0,5.1,4.8,5.1,9
		C198.1,62.1,197.1,66.1,193.7,66.1z"/>
	<path class="st0" d="M224.4,47.3c-1.7,0-3.3,1.5-4.9,2.5c-0.3,0-0.5-0.2-0.5-0.5c0,0,0,0,0,0c0-0.5,0.1-1.3,0.1-2.2
		c-0.1-0.3-0.4-0.5-0.7-0.4c-2,1.1-4.1,2-6.3,2.7c-0.2,0.4-0.2,0.8,0,1.1l0.6,0.3c1.2,0.7,1.2,1.3,1.2,3.5v7.2
		c0,3.6-0.2,4.1-1.9,4.4l-0.9,0.2c-0.4,0.4-0.3,1,0.1,1.4c0,0,0,0,0,0c1.9-0.1,3.5-0.2,5.2-0.2c1.8,0,3.5,0,6.5,0.2
		c0.4-0.4,0.5-1,0.1-1.4c0,0,0,0,0,0l-1.9-0.2c-1.7-0.2-1.9-0.7-1.9-4.4v-6.7c0-2.4,0.3-3.5,1.4-3.5c0.9,0.1,1.7,0.4,2.4,0.9
		c0.4,0.3,0.9,0.4,1.3,0.4c1.5,0,2.7-1.2,2.8-2.7c0-0.1,0-0.1,0-0.2c0-1.4-1.2-2.5-2.5-2.4C224.5,47.3,224.4,47.3,224.4,47.3z"/>
	<path class="st0" d="M256.3,65c-0.7,0.2-1.4,0.3-2.1,0.3c-1.2,0-1.2-2.5-1.2-5.2V52c0-1.8,0-3.2,0.1-4.2c-0.1-0.2-0.3-0.4-0.5-0.5
		c-1,0.5-4.5,0.8-7.8,0.9c-0.4,0.2-0.4,1.1-0.1,1.3l0.8,0.2c1.9,0.6,2.2,0.8,2.2,3.9v7.4c0,1.8-0.1,2.3-0.6,2.8
		c-0.9,0.8-2.1,1.2-3.3,1.2c-3.5,0-4.1-2.7-4.1-5.6V52c0-1.4,0-2.8,0.1-4.2c-0.1-0.2-0.3-0.4-0.5-0.5c-2.3,0.6-4.6,0.9-6.9,0.9
		c-0.4,0.1-0.4,1-0.1,1.3l0.7,0.2c1.2,0.3,1.4,0.7,1.4,4.2v7.7c0,4.1,1.4,6.5,5.9,6.5c2.5,0,4.7-1.1,6.8-2.4c0.3,0,0.4,0.2,0.5,0.5
		c0,0.6,0,1.2-0.1,1.8c0,0.2,0.2,0.4,0.4,0.5c2.6-1,5.4-1.6,8.1-1.9c0.5-0.3,0.6-1,0.3-1.5C256.4,65.1,256.4,65.1,256.3,65z"/>
	<path class="st1" d="M45.6,57.5c0-0.8,0.2-1.5,0.7-2.1l-1.8-2.5l-5.9,7.5c0.4,0.6,0.6,1.3,0.6,2c0,0.2,0,0.4-0.1,0.7l15,8.5
		l-4.5-10.5h-0.2C47.3,61.2,45.7,59.5,45.6,57.5z"/>
	<path class="st1" d="M54.8,34.2c2,0,3.7,1.6,3.7,3.7c0,0,0,0,0,0c0,0.6-0.1,1.1-0.4,1.7l6.4,6.5l11-7.2c-0.1-0.3-0.1-0.7-0.1-1
		c0-0.1,0-0.2,0-0.3l-15.9-9c-1.3,1-3.1,1-4.5,0.1l-16,9.1c0,0.2,0.1,0.4,0.1,0.7c0,0.8-0.2,1.5-0.7,2.1l6.1,8.4l7.1-9
		c-0.4-0.6-0.6-1.3-0.6-2C51.1,35.8,52.8,34.2,54.8,34.2C54.8,34.2,54.8,34.2,54.8,34.2z"/>
	<polygon class="st1" points="37.2,42.8 37.2,58.3 43,50.9 	"/>
	
		<linearGradient id="SVGID_1_" gradientUnits="userSpaceOnUse" x1="63.905" y1="64.37" x2="63.905" y2="26.16" gradientTransform="matrix(1 0 0 -1 0 102)">
		<stop  offset="0" style="stop-color:#FF681F"/>
		<stop  offset="1" style="stop-color:#FFB82A"/>
	</linearGradient>
	<path class="st2" d="M53,56.6c0.1,0.3,0.1,0.6,0.1,0.9c0,1-0.4,2-1.2,2.7L57,72h0.3c0.7,0,1.3,0.2,1.9,0.5l16.3-9.3
		c0-0.1,0-0.2,0-0.3c0-0.6,0.1-1.1,0.4-1.7l-11.7-12L53,56.6z"/>
	
		<linearGradient id="SVGID_2_" gradientUnits="userSpaceOnUse" x1="72.005" y1="64.37" x2="72.005" y2="26.16" gradientTransform="matrix(1 0 0 -1 0 102)">
		<stop  offset="0" style="stop-color:#FF681F"/>
		<stop  offset="1" style="stop-color:#FFB82A"/>
	</linearGradient>
	<path class="st3" d="M77,40.9l-10.7,7l11.4,11.7h0.1V41.3C77.5,41.2,77.2,41,77,40.9z"/>
	
		<linearGradient id="SVGID_3_" gradientUnits="userSpaceOnUse" x1="45.5136" y1="83.0963" x2="90.8836" y2="56.9063" gradientTransform="matrix(1 0 0 -1 0 102)">
		<stop  offset="0" style="stop-color:#FFB82A"/>
		<stop  offset="1" style="stop-color:#FF681F"/>
	</linearGradient>
	<path class="st4" d="M59.6,28.5l15.9,9c0.1-0.8,0.4-1.6,1-2.2L61,26.5C60.8,27.3,60.3,28,59.6,28.5z"/>
	
		<linearGradient id="SVGID_4_" gradientUnits="userSpaceOnUse" x1="39.8907" y1="73.5938" x2="85.6106" y2="47.2038" gradientTransform="matrix(1 0 0 -1 0 102)">
		<stop  offset="0" style="stop-color:#FFB82A"/>
		<stop  offset="1" style="stop-color:#FF681F"/>
	</linearGradient>
	<path class="st5" d="M55.1,28.6c-0.7-0.5-1.2-1.2-1.4-2l-15.8,9c0.6,0.5,1.1,1.3,1.2,2.1L55.1,28.6z"/>
	
		<linearGradient id="SVGID_5_" gradientUnits="userSpaceOnUse" x1="0.6817" y1="64.8229" x2="82.4717" y2="17.6029" gradientTransform="matrix(1 0 0 -1 0 102)">
		<stop  offset="0" style="stop-color:#FFB82A"/>
		<stop  offset="1" style="stop-color:#FF681F"/>
	</linearGradient>
	<path class="st6" d="M51.9,60.2c-0.4,0.3-0.8,0.6-1.3,0.8c-0.3,0.1-0.7,0.2-1,0.2l4.5,10.4l-15-8.5c-0.2,0.8-0.6,1.6-1.2,2.1
		l16,9.1c0.3-0.8,0.9-1.5,1.7-1.9C56,72.2,56.5,72,57,72L51.9,60.2z"/>
	
		<linearGradient id="SVGID_6_" gradientUnits="userSpaceOnUse" x1="31.6224" y1="59.3169" x2="76.9424" y2="33.1569" gradientTransform="matrix(1 0 0 -1 0 102)">
		<stop  offset="0" style="stop-color:#FFB82A"/>
		<stop  offset="1" style="stop-color:#FF681F"/>
	</linearGradient>
	<path class="st7" d="M38.6,60.4l5.9-7.5l1.8,2.5c0.5-0.7,1.2-1.2,2-1.4l-2.2-3.1l7.5-9.5c-0.8-0.3-1.5-0.8-2-1.5l-7.1,9l-6.1-8.4
		c-0.7,1-1.8,1.6-3,1.6c-0.3,0-0.5,0-0.8-0.1v16.8c0.3-0.1,0.5-0.1,0.8-0.1C36.7,58.7,37.9,59.4,38.6,60.4z M37.2,42.8l5.8,8
		l-5.8,7.4V42.8z"/>
	
		<linearGradient id="SVGID_7_" gradientUnits="userSpaceOnUse" x1="37.6708" y1="75.3613" x2="86.4208" y2="47.2213" gradientTransform="matrix(1 0 0 -1 0 102)">
		<stop  offset="0" style="stop-color:#FFB82A"/>
		<stop  offset="1" style="stop-color:#FF681F"/>
	</linearGradient>
	<path class="st8" d="M79.2,41.6H79c-0.4,0-0.9-0.1-1.3-0.3v18.2c0.5-0.2,1-0.3,1.5-0.3l0,0c0.3,0,0.6,0.1,0.9,0.1V41.4
		C79.9,41.5,79.5,41.6,79.2,41.6z"/>
	
		<linearGradient id="SVGID_8_" gradientUnits="userSpaceOnUse" x1="26.0801" y1="57.4802" x2="75.8801" y2="28.7302" gradientTransform="matrix(1 0 0 -1 0 102)">
		<stop  offset="0" style="stop-color:#FFB82A"/>
		<stop  offset="1" style="stop-color:#FF681F"/>
	</linearGradient>
	<path class="st9" d="M75.9,64.7c-0.2-0.4-0.4-0.9-0.4-1.4l-16.3,9.3c0.5,0.3,1,0.7,1.3,1.3c0.1,0.2,0.2,0.4,0.3,0.6l15.7-8.9
		C76.3,65.2,76.1,64.9,75.9,64.7z"/>
	
		<linearGradient id="SVGID_9_" gradientUnits="userSpaceOnUse" x1="31.7383" y1="73.0539" x2="83.5283" y2="43.1539" gradientTransform="matrix(1 0 0 -1 0 102)">
		<stop  offset="0" style="stop-color:#FFB82A"/>
		<stop  offset="1" style="stop-color:#FF681F"/>
	</linearGradient>
	<path class="st10" d="M66.3,47.9l10.7-7c-0.5-0.3-0.9-0.8-1.1-1.3c-0.1-0.2-0.2-0.5-0.3-0.7l-11,7.2l-6.4-6.5
		c-0.4,0.8-1,1.3-1.8,1.7l6.1,6.2l-10.8,7.1c0.2,0.2,0.4,0.4,0.6,0.6c0.3,0.4,0.6,0.9,0.7,1.4l11.2-7.3l11.7,12
		c0.4-0.8,1-1.4,1.8-1.7L66.3,47.9z"/>
	<path class="st11" d="M55.1,28.6c1.3,1,3.2,0.9,4.5-0.1c0.7-0.5,1.2-1.2,1.4-2.1c0.5-2-0.7-4-2.7-4.5s-4,0.7-4.5,2.7
		C53.4,26.2,53.9,27.7,55.1,28.6L55.1,28.6z"/>
	<path class="st11" d="M38.5,40.5c0.4-0.6,0.7-1.3,0.7-2.1c0-0.2,0-0.4-0.1-0.7c-0.2-0.8-0.6-1.6-1.2-2.1c-1.5-1.3-3.9-1.2-5.2,0.3
		c-1.3,1.5-1.2,3.9,0.3,5.2c0.5,0.4,1.1,0.7,1.7,0.8c0.3,0.1,0.5,0.1,0.8,0.1C36.7,42.1,37.8,41.5,38.5,40.5z"/>
	<path class="st12" d="M75.5,37.9c0,0.3,0,0.7,0.1,1c0.1,0.2,0.2,0.5,0.3,0.7c0.3,0.5,0.6,0.9,1.1,1.3c0.2,0.2,0.5,0.3,0.7,0.4
		c0.4,0.2,0.8,0.3,1.2,0.3h0.3c0.3,0,0.7,0,1-0.1c1.9-0.6,3.1-2.6,2.5-4.6c-0.6-1.9-2.6-3.1-4.6-2.5c-1.4,0.4-2.5,1.7-2.6,3.2
		C75.5,37.7,75.5,37.8,75.5,37.9z"/>
	<path class="st11" d="M59.2,72.5C58.6,72.1,58,72,57.3,72L57,72c-0.5,0-1,0.2-1.4,0.4c-0.8,0.4-1.4,1.1-1.7,1.9
		c-0.2,0.4-0.3,0.9-0.3,1.4c0,2.1,1.6,3.7,3.7,3.8s3.7-1.6,3.8-3.7c0-0.5-0.1-0.9-0.2-1.3c-0.1-0.2-0.2-0.4-0.3-0.6
		C60.2,73.2,59.8,72.8,59.2,72.5z"/>
	<path class="st12" d="M80.2,59.4c-0.3-0.1-0.6-0.1-0.9-0.1h-0.1c-0.5,0-1,0.1-1.5,0.3h-0.1c-0.8,0.3-1.4,0.9-1.8,1.7
		c-0.3,0.5-0.4,1.1-0.4,1.7c0,0.1,0,0.2,0,0.3c0,0.5,0.2,1,0.4,1.4c0.2,0.3,0.4,0.6,0.6,0.8c1.4,1.5,3.7,1.6,5.2,0.2
		c1.5-1.4,1.6-3.7,0.2-5.2C81.4,59.9,80.8,59.5,80.2,59.4L80.2,59.4z"/>
	<path class="st12" d="M39.2,62.4c0-0.7-0.2-1.4-0.6-2c-0.7-1.1-1.9-1.7-3.1-1.7c-0.3,0-0.5,0-0.8,0.1c-2,0.4-3.2,2.4-2.8,4.4
		c0.4,2,2.4,3.2,4.4,2.8c0.6-0.1,1.1-0.4,1.6-0.8c0.6-0.5,1.1-1.3,1.2-2.1C39.2,62.8,39.2,62.6,39.2,62.4z"/>
	<path class="st11" d="M53.1,57.5c0-0.3,0-0.6-0.1-0.9c-0.1-0.5-0.4-1-0.8-1.5c-0.7-0.9-1.7-1.3-2.8-1.3c-0.3,0-0.7,0.1-1,0.2
		c-0.8,0.2-1.5,0.7-2,1.4c-0.4,0.6-0.7,1.3-0.7,2.1c0,2,1.7,3.7,3.7,3.7c0,0,0,0,0,0h0.2c0.3,0,0.7-0.1,1-0.2
		c0.5-0.2,0.9-0.4,1.3-0.8C52.7,59.5,53.1,58.5,53.1,57.5z"/>
	<path class="st12" d="M56.4,41.2c0.8-0.4,1.4-0.9,1.8-1.7c0.3-0.5,0.4-1.1,0.4-1.7c0-2.1-1.7-3.7-3.7-3.7c-2.1,0-3.7,1.7-3.7,3.7
		c0,0.7,0.2,1.4,0.6,2c0.5,0.7,1.2,1.3,2,1.5C54.6,41.7,55.6,41.6,56.4,41.2L56.4,41.2z"/>
</g>
</svg>
